Coordinates
version=1
nRows=21
nColumns=12
inDegrees=yes

Units are S.I. units (second, meters, Newtons, ...)
Angles are in degrees

endheader
time	SC_y	SC_z	SC_x	AC_y	AC_z	AC_x	GH_y	GH_z	GH_yy	EL_x	PS_y
       0.0              -19.52          31.94          10.41          47.26         -19.82         -1.757         -136.2          73.86          62.59          103.6          10.93
   0.04653              -19.52          31.93          10.41          47.26         -19.81         -1.754         -136.2          73.86          62.59          103.6          10.94
   0.09307              -19.52          31.93          10.42          47.26         -19.81          -1.75         -136.2          73.86           62.6          103.6          10.95
    0.1396              -19.52          31.92          10.42          47.26          -19.8         -1.747         -136.2          73.87           62.6          103.6          10.97
    0.1861              -19.51          31.92          10.43          47.26          -19.8         -1.744         -136.2          73.87          62.61          103.6          10.98
    0.2327              -19.51          31.91          10.43          47.26         -19.79          -1.74         -136.2          73.87          62.61          103.6           11.0
    0.2792              -19.51          31.91          10.44          47.26         -19.79         -1.736         -136.2          73.87          62.62          103.6          11.01
    0.3257              -19.51           31.9          10.44          47.25         -19.78         -1.731         -136.2          73.88          62.62          103.6          11.03
    0.3723              -19.51           31.9          10.45          47.25         -19.78         -1.727         -136.2          73.88          62.63          103.5          11.05
    0.4188              -19.51          31.89          10.46          47.25         -19.77         -1.722         -136.2          73.88          62.63          103.5          11.07
    0.4653              -19.51          31.88          10.46          47.25         -19.76         -1.716         -136.3          73.89          62.64          103.5          11.09
    0.5119              -19.51          31.87          10.47          47.25         -19.75          -1.71         -136.3          73.89          62.65          103.5          11.11
    0.5584              -19.51          31.87          10.48          47.25         -19.74         -1.704         -136.3          73.89          62.66          103.5          11.14
    0.6049              -19.51          31.86          10.49          47.24         -19.73         -1.698         -136.3           73.9          62.67          103.5          11.17
    0.6515              -19.51          31.85           10.5          47.24         -19.72          -1.69         -136.3           73.9          62.68          103.4           11.2
     0.698              -19.51          31.84          10.51          47.24         -19.71         -1.682         -136.3          73.91          62.69          103.4          11.23
    0.7445               -19.5          31.82          10.52          47.24          -19.7         -1.674         -136.3          73.91           62.7          103.4          11.26
    0.7911               -19.5          31.81          10.53          47.23         -19.69         -1.664         -136.3          73.92          62.71          103.4           11.3
    0.8376               -19.5           31.8          10.55          47.23         -19.67         -1.654         -136.3          73.93          62.72          103.3          11.34
    0.8841               -19.5          31.78          10.56          47.23         -19.66         -1.643         -136.3          73.93          62.74          103.3          11.39
    0.9307               -19.5          31.77          10.58          47.22         -19.64         -1.631         -136.4          73.94          62.75          103.3          11.44
